<svg version="1.1" xmlns="http://www.w3.org/2000/svg" viewBox="0 0 584.53125 422.87500000000006" width="584.53125" height="422.87500000000006">
  <!-- svg-source:excalidraw -->
  
  <defs>
    <style>
      @font-face {
        font-family: "Virgil";
        src: url("https://excalidraw.com/FG_Virgil.woff2");
      }
      @font-face {
        font-family: "Cascadia";
        src: url("https://excalidraw.com/Cascadia.woff2");
      }
    </style>
  </defs>
  <g><g transform="translate(221.52936759925137 48.3985290788423) rotate(0 -0.24819600279909082 25.48576327860355)"><path d="M-1.068219119310379 -0.005108231306075961 C-1.137314717149517 8.657097538698771, -0.16379877018819866 43.54860956067373, 0.004660563613288149 52.024920555287956 M0.5718271137122066 -1.0533939980808644 C0.36232681851446025 7.283665574545349, -0.4339530918941211 41.55934649408949, -0.6175874222023412 50.412397249042975" stroke="#000" stroke-width="2" fill="none"></path></g></g><g><g transform="translate(221.625 90.25) rotate(0 -19.15687043001526 67.76113621383296)"><path d="M0.6226488769054412 0.6839371025562286 C0.0014638920625050789 8.17603374918302, 3.126481503248216 31.53030996123949, -2.5721225082874297 45.34940245747566 C-8.270726519823075 59.168494953711836, -27.471902072199548 68.69352524566054, -33.56897519230843 83.59849207997328 C-39.66604831241731 98.50345891428603, -38.1494701238058 126.03122515443005, -39.15456122894072 134.77920346335216 M-0.5095991920586675 -0.002599863940849989 C-1.3961775827563057 7.134402770365899, 2.0636404235009103 29.59854947911264, -3.558032288765535 43.73838899887167 C-9.17970500103198 57.8782285186307, -28.29213481722671 69.53869003915747, -34.23963546565734 84.83643725461332 C-40.18713611408796 100.13418447006916, -38.61972323246184 126.86341721901894, -39.24303617934929 135.52487229160673" stroke="#000" stroke-width="2" fill="none"></path></g><g transform="translate(221.625 90.25) rotate(0 -19.15687043001526 67.76113621383296)"><path d="M-47.81233724224704 107.01925797681604 C-43.38710307360286 118.63848063188784, -41.41636155582007 128.5197822275015, -40.38015383343445 133.71859194688207 M-49.38049713540214 106.37305548708234 C-44.569831313839465 117.3549795498967, -41.894773911703986 127.60839199445805, -39.741527094051705 134.86992869130975" stroke="#000" stroke-width="2" fill="none"></path></g><g transform="translate(221.625 90.25) rotate(0 -19.15687043001526 67.76113621383296)"><path d="M-27.295026900289187 107.41923137296733 C-31.001078066737442 118.98642399177342, -37.16029923009644 128.70923654910854, -40.38015383343445 133.71859194688207 M-28.863186793444285 106.77302888323364 C-31.278674596974483 117.62165417931995, -35.82722850707252 127.73424639448102, -39.741527094051705 134.86992869130975" stroke="#000" stroke-width="2" fill="none"></path></g></g><g><g transform="translate(221.375 91.12500000000006) rotate(0 38.59828500976744 65.34741627212027)"><path d="M-0.8966155707836151 1.0697827041149137 C1.6563647099181695 9.904218831890363, 4.229522486651923 40.165935708088604, 16.211153541710786 53.732450152835476 C28.19278459676965 67.29896459758234, 60.746071356555696 69.86566159537402, 70.99317075956957 82.46886937259613 C81.24027016258344 95.07207714981824, 76.64591900691848 121.36639499263622, 77.69374995979402 129.35169681616816 M0.8335225252155216 0.5858146784361451 C3.244899883537336 9.005584602653148, 4.251266916502871 38.05130904333646, 15.83058600186426 51.93673422124669 C27.40990508722565 65.82215939915692, 59.93233710597481 70.86965180513789, 70.30943703738386 83.89836574589751 C80.68653696879291 96.92707968665712, 77.18733451867001 122.26456275158345, 78.09318559031854 130.1090178658044" stroke="#000" stroke-width="2" fill="none"></path></g><g transform="translate(221.375 91.12500000000006) rotate(0 38.59828500976744 65.34741627212027)"><path d="M69.30932850841683 103.83310392280627 C72.69046984997854 112.88403916700625, 75.96504465653373 123.62137156343967, 76.99305911522279 129.90393851890917 M67.80390742127102 101.6518063076358 C70.53394107357967 110.7261924059684, 75.15140105083073 121.24562216018023, 78.69594386380086 129.8536371310031" stroke="#000" stroke-width="2" fill="none"></path></g><g transform="translate(221.375 91.12500000000006) rotate(0 38.59828500976744 65.34741627212027)"><path d="M89.82932155972345 103.60974868967452 C85.52832161586728 112.59099570512774, 81.11940414796139 123.41196108349918, 76.99305911522279 129.90393851890917 M88.32390047257765 101.42845107450404 C84.2662470304908 110.7025069129864, 82.09687728848736 121.29580969095505, 78.69594386380086 129.8536371310031" stroke="#000" stroke-width="2" fill="none"></path></g></g><g transform="translate(171 243.87500000000006) rotate(0 10 12.5)"><text x="10" y="17" font-family="Virgil, Segoe UI Emoji" font-size="20px" fill="#000" text-anchor="middle" style="white-space: pre;" direction="ltr">#1</text></g><g transform="translate(280.5625 245.31250000000006) rotate(0 15.5 12.5)"><text x="15.5" y="17" font-family="Virgil, Segoe UI Emoji" font-size="20px" fill="#000" text-anchor="middle" style="white-space: pre;" direction="ltr">#2</text></g><g transform="translate(271.9375 232.18750000000006) rotate(0 26.875 24.0625)"><path d="M1.5344589054584503 1.8658253848552704 C16.72305574454367 -0.26637879554182287, 32.49835302308202 -1.5142644995823502, 54.625726491212845 0.19345733523368835 M-0.49119915068149567 -0.6742025464773178 C11.33751960657537 -0.924845696054399, 24.246667440980673 0.4992299074307084, 54.012842044234276 -0.35168276727199554 M54.474290639162064 -1.7665570080280304 C51.98688695477322 14.727325270883739, 54.88865754650906 28.153550079092383, 55.18643835186958 46.44068309664726 M52.802732333540916 0.44247235357761383 C54.38109709126875 14.258253623731434, 53.915113223623486 30.003615582361817, 54.190425261855125 47.8928150087595 M53.7076099216938 49.913530081510544 C34.69476751051843 50.17588812056929, 17.825266163796186 47.44246774856001, 1.5220830738544464 48.59705802798271 M54.067839965224266 48.57796134054661 C41.98049725033343 48.69694916661829, 29.304638300091028 48.76564757283777, -0.9718505293130875 47.928099527955055 M0.7080495655536652 46.38557884097099 C0.8054062183015048 36.38620584178716, 1.2171255405060948 26.856284746900197, -1.8624565303325653 1.360824316740036 M-0.19050516188144684 48.250330820679665 C-0.033716858457773946 32.741435687057674, 0.8044069399125874 18.534191554412246, -0.48423923552036285 -0.7121378034353256" stroke="#000" stroke-width="2" fill="none"></path></g><g transform="translate(158.125 231.68750000000006) rotate(0 26.875 24.0625)"><path d="M-1.8247502148151398 1.4823806583881378 C13.894142096862197 -0.7338153099641204, 29.45553318783641 -1.3047925209626556, 53.76981899142265 0.6825349628925323 M0.4787405878305435 -0.7130848318338394 C13.166040847077966 0.5844714498147369, 25.67159366980195 -1.0262420320883394, 53.70319212973118 0.5372942537069321 M55.155751913785934 1.050630360841751 C52.378037623595446 11.33393991459161, 53.70211236877367 26.888520220294595, 52.8867652118206 46.91853979229927 M53.97085799276829 -0.9638310819864273 C54.91246486352757 12.88916992675513, 54.4104235236533 24.785002356395125, 53.171276941895485 48.58426223695278 M54.182121962308884 47.08424261212349 C44.345140093937516 48.138520309887824, 33.137766379863024 46.86069495435804, -0.5099909603595734 46.351352483034134 M54.529152765870094 48.60816131532192 C37.60419770143926 47.74336070660502, 20.244565512984984 48.092028328217566, 0.6806367784738541 47.14293371140957 M1.8276021182537079 48.30685022473335 C-2.1933647970668972 30.918404216878116, 1.5475190301425754 13.420369585976005, -0.37845733761787415 -0.5141441524028778 M0.7498163133859634 48.50826345384121 C0.6703982050530612 30.39888385403901, 1.0180577929131687 11.632140362635248, -0.4069119542837143 -0.046945229172706604" stroke="#000" stroke-width="2" fill="none"></path></g><g><g transform="translate(182.1249999999999 159.875) rotate(335.2903187137116 10.641630688399857 1.8762705257048538)"><path d="M-0.3084864914417267 1.0485716164112089 C-0.13235905766487122 3.820927459001541, -2.26754855910937 18.588503231604893, 1.4754957854747772 16.407060652971268 C5.2185401300589245 14.22561807433764, 18.751992799838384 -7.4055590013662975, 22.149779576063157 -12.040083855390549 M1.7304193712119016 0.5534677696879955 C1.6769299189094458 3.5091156778391452, -3.036630421594406 20.147919216419883, 0.3177106092218309 17.69881774700247 C3.6720516400380676 15.249716277585057, 18.170995804055906 -8.961542417441184, 21.856465556109324 -14.141141046816482" stroke="green" stroke-width="2" fill="none"></path></g></g><g transform="translate(199 15.125) rotate(0 23 12.5)"><text x="0" y="17" font-family="Virgil, Segoe UI Emoji" font-size="20px" fill="#000" text-anchor="start" style="white-space: pre;" direction="ltr">email</text></g><g><g transform="translate(188.55187831858086 288.11911364938726) rotate(0 23.6418444760572 46.277820949654824)"><path d="M-2.1529930103163224 -0.4339452087879181 C-0.3865093768483978 6.071323450521809, 0.4551502989721543 27.620389462442972, 8.141710525415542 37.84321327874769 C15.82827075185893 48.06603709505241, 37.1217349266326 51.49969785415662, 43.966368348344005 60.90299768904039 C50.81100177005541 70.30629752392416, 48.4106500277293 88.83926712188028, 49.20951105568399 94.2630122880503 M-0.15821671451097252 -1.7073703887406737 C1.531407801508622 5.021439922235218, 0.04922122208635127 28.75791910777231, 7.314849025951403 38.871772645277495 C14.580476829816455 48.98562618278268, 36.41524461926612 50.12607096701956, 43.435550108679344 58.97575083629044 C50.45585559809257 67.82543070556132, 48.227181034208925 86.18748090038166, 49.43668196243075 91.96985186090279" stroke="#000" stroke-width="2" fill="none"></path></g><g transform="translate(188.55187831858086 288.11911364938726) rotate(0 23.6418444760572 46.277820949654824)"><path d="M36.70564611001086 64.8625115133656 C38.44632277935737 71.91410988998308, 44.285220346067945 77.75720851984784, 50.271534926116736 91.15726194729615 M38.112064031196354 64.06198505832086 C40.67227488835829 72.57172041529171, 44.52462861424035 78.65733456210957, 50.23106153947142 91.4664151911955" stroke="#000" stroke-width="2" fill="none"></path></g><g transform="translate(188.55187831858086 288.11911364938726) rotate(0 23.6418444760572 46.277820949654824)"><path d="M57.18648617359482 63.57596859696761 C53.95932331711306 70.87183418657395, 54.84312240716116 77.02619675021356, 50.271534926116736 91.15726194729615 M58.592904094780316 62.775442141922866 C55.539248277562216 71.69350816683738, 53.787757129522525 78.13113848607564, 50.23106153947142 91.4664151911955" stroke="#000" stroke-width="2" fill="none"></path></g></g><g transform="translate(180 387.87500000000006) rotate(0 64.5 12.5)"><text x="0" y="17" font-family="Virgil, Segoe UI Emoji" font-size="20px" fill="#000" text-anchor="start" style="white-space: pre;" direction="ltr">your address</text></g><g transform="translate(10 241.25000000000006) rotate(0 59.5 12.5)"><text x="0" y="17" font-family="Virgil, Segoe UI Emoji" font-size="20px" fill="black" text-anchor="start" style="white-space: pre;" direction="ltr">mail servers</text></g><g><g transform="translate(470.3731175992514 43.27352907884227) rotate(0 -0.8392825675360314 25.330310489120883)"><path d="M0.6128395736217498 -0.020941704511642456 C0.3574707824232366 8.247947415102582, -1.07335287022482 42.062646692936916, -1.092924542282708 50.494273849660516 M-0.5245583795662969 -1.0775400447193535 C-1.0181252946370902 7.269711636061156, -2.4310230944499684 42.95325312079084, -2.2914047086937352 51.73816102296112" stroke="#000" stroke-width="2" fill="none"></path></g></g><g><g transform="translate(470.46875 85.125) rotate(0 -18.822270678302743 67.72608518957479)"><path d="M-0.020941704511642456 -0.4770184814929962 C-0.677618251244227 7.001894189914068, 2.6431516945362086 31.51711362401643, -3.059120148420334 45.48631560206413 C-8.761391991376875 59.45551758011183, -28.472296166189867 68.27021423863768, -34.2345727622509 83.3381933867932 C-39.99684935831193 98.40617253494871, -36.99509012416819 127.10818766120113, -37.632779724786516 135.89419049099726 M-1.4910748287197202 -1.7730571296159179 C-2.4317778512990724 5.343839942480749, 1.326562465215103 29.578425064847487, -4.300703689968214 43.94718154436909 C-9.92796984515153 58.31593802389069, -29.817735810561963 68.89314075344763, -35.254671759819615 84.4394817475137 C-40.69160770907727 99.98582274157977, -36.24929373301448 128.50578504184486, -36.92231938551412 137.22522750876553" stroke="#000" stroke-width="2" fill="none"></path></g><g transform="translate(470.46875 85.125) rotate(0 -18.822270678302743 67.72608518957479)"><path d="M-48.821630078070164 108.424112881113 C-41.88561159877439 118.95699660085295, -40.27768176657527 131.64294124532083, -36.20112532685743 137.98363292596943 M-47.8473544145751 109.68466545133681 C-44.3532512663529 120.00028751805276, -39.86481268049609 128.46725708950075, -37.693943607911926 138.15238814435608" stroke="#000" stroke-width="2" fill="none"></path></g><g transform="translate(470.46875 85.125) rotate(0 -18.822270678302743 67.72608518957479)"><path d="M-28.309714971027667 107.80658472198085 C-29.029929700525663 118.56648099562396, -35.08138679123483 131.48301781453782, -36.20112532685743 137.98363292596943 M-27.335439307532603 109.06713729220466 C-31.012338979020797 119.57883830998406, -33.69065466417654 128.26156894269013, -37.693943607911926 138.15238814435608" stroke="#000" stroke-width="2" fill="none"></path></g></g><g><g transform="translate(470.21875 86.00000000000006) rotate(0 38.91648860668721 65.6252271994191)"><path d="M-0.4770184814929962 -0.5591201484203339 C2.1277680583640617 8.215251663559217, 4.42451554151871 38.675687182945936, 16.241558812764097 52.62528916736566 C28.058602084009486 66.57489115178538, 60.159514194747686 70.16490396073428, 70.42524114597933 83.138491758098 C80.69096809721097 96.11207955546172, 76.57413731202939 122.79220100240565, 77.83592052015396 130.46681595154794 M1.4734080863837153 1.7617378283198923 C3.9637899899173217 10.69990967094815, 4.548631325174728 40.65868004249389, 15.876954040220564 53.90831371840522 C27.2052767552664 67.15794739431655, 59.03783743421758 68.2759964123123, 69.44334437665873 81.25953988378785 C79.84885131909988 94.24308335526341, 77.0778674339642 123.82891691648184, 78.30999569486748 131.80957454725856" stroke="#000" stroke-width="2" fill="none"></path></g><g transform="translate(470.21875 86.00000000000006) rotate(0 38.91648860668721 65.6252271994191)"><path d="M65.96998115209627 105.91552120676188 C70.09444266434012 113.1632069262074, 76.3787450699247 124.31161894128513, 79.06840111207138 132.79746839686985 M67.23053372232008 104.04863848021178 C70.40908176970461 111.05180440358015, 71.77625615843422 116.10116042245751, 79.23715633045803 132.78061513885612" stroke="#000" stroke-width="2" fill="none"></path></g><g transform="translate(470.21875 86.00000000000006) rotate(0 38.91648860668721 65.6252271994191)"><path d="M86.47392383448897 105.07389369830324 C83.39992004180657 112.53554322721425, 82.4859040184198 123.97942538178225, 79.06840111207138 132.79746839686985 M87.73447640471278 103.20701097175314 C86.17169037053029 110.44151405244688, 82.79833825734976 115.68545496508767, 79.23715633045803 132.78061513885612" stroke="#000" stroke-width="2" fill="none"></path></g></g><g transform="translate(419.84375 238.75) rotate(0 10 12.5)"><text x="10" y="17" font-family="Virgil, Segoe UI Emoji" font-size="20px" fill="#000" text-anchor="middle" style="white-space: pre;" direction="ltr">#1</text></g><g transform="translate(529.40625 240.1875) rotate(0 15.5 12.5)"><text x="15.5" y="17" font-family="Virgil, Segoe UI Emoji" font-size="20px" fill="#000" text-anchor="middle" style="white-space: pre;" direction="ltr">#2</text></g><g transform="translate(520.78125 227.0625) rotate(0 26.875 24.0625)"><path d="M-0.6863443553447723 1.4716231524944305 C14.341801727190616 0.9754536336287856, 28.22910918667913 -1.1589371973648668, 53.558090955019 0.3584897220134735 M0.5939720720052719 -0.37411223351955414 C17.120061179623008 0.4454072171822191, 36.75441139563918 -1.3813564127311109, 53.013861045241356 -0.16348515450954437 M53.178383618593216 -0.49434688687324524 C54.9952574823983 15.106943110935394, 55.413904294837266 32.00873970054091, 52.72240999341011 49.32779189944267 M52.7831214517355 -0.194403275847435 C53.856663207244125 14.012047191150488, 53.5177392761223 28.174933815374974, 54.16136918962002 47.32715214788914 M55.61687257885933 47.931254118680954 C42.22853503189981 47.428072720207275, 30.443499486893412 48.31400659624487, 0.035685330629348755 46.69159480929375 M54.15487276017666 47.73800648748875 C36.79767663218081 49.35813336428255, 20.78604630008339 48.313687849603596, -0.6164308935403824 48.38933791220188 M0.4465053379535675 49.38416835665703 C1.2784045184962451 34.67144395876676, -0.58010931359604 20.60883552767336, -0.653450220823288 1.3043906390666962 M-0.7072779089212418 49.11305846273899 C0.8038098295219243 32.22751886676997, 0.5219232519157231 18.264235740527507, 0.24833188951015472 -0.771361455321312" stroke="#000" stroke-width="2" fill="none"></path></g><g transform="translate(406.96875 226.5625) rotate(0 26.875 24.0625)"><path d="M1.4716231524944305 0.7211940586566925 C21.861173218116164 1.17234889511019, 40.82955018803477 -0.0074539994820952415, 54.10848972201347 0.657371312379837 M-0.37411223351955414 -0.7716242223978043 C16.97320158220828 0.6517806028947234, 31.192478898912675 -1.0553989434614777, 53.586514845490456 0.4081066697835922 M53.255653113126755 1.3814237415790558 C52.486432848405094 14.875907962210478, 52.98671608967707 25.124084809795026, 54.95279189944267 48.092777997255325 M53.555596724152565 -0.04052843153476715 C53.31467688130215 15.529964025132358, 53.117597699631006 32.23020196519792, 52.95215214788914 47.21133075654507 M53.556254118680954 47.817562848329544 C35.86452483572066 47.74827712532133, 19.163731832057238 48.662407336197795, -1.433405190706253 48.22303941845894 M53.36300648748875 47.56115756928921 C37.14871199987829 48.155627282895146, 18.74095132574439 47.72618821505457, 0.2643379122018814 47.98035989701748 M1.2591683566570282 49.44074419140816 C0.6270123322494328 32.77133363019675, 0.30582340555265547 17.849756320938464, 1.3043906390666962 0.24053838849067688 M0.9880584627389908 48.69505487382412 C-0.6832191471941769 36.313217853195965, 0.3697932238690555 24.173431003466245, -0.771361455321312 -0.38880981504917145" stroke="#000" stroke-width="2" fill="none"></path></g><g><g transform="translate(529.71875 153.12500000000006) rotate(0 11.174770139465124 2.4922533374309666)"><path d="M0.8829738914966583 0.4327164351940156 C1.3520765602588654 3.412640255689621, -0.9268625597159073 19.642379953463873, 2.330043250322342 17.46773630976677 C5.586949060360591 15.293092666069668, 17.23523365457853 -7.686259839932123, 20.42440875172615 -12.615145426988601 M-0.11260354480706147 -0.38571138166822494 C0.28069423624314377 2.2764776927884665, -2.2120842725193746 17.485081217254823, 1.620895493114367 15.656348123615608 C5.453875258748109 13.827615029976393, 19.517938107534622 -6.94961119625407, 22.88527504899539 -11.358109943503514" stroke="green" stroke-width="2" fill="none"></path></g></g><g><g transform="translate(433.6393004665456 150.44911321372928) rotate(0 7.542348548794166 11.613811197638412)"><path d="M0.4327164351940156 0.45504325032234183 C3.1486747479379784 4.05376352473904, 13.426719081372326 18.631805976470773, 15.883943263256914 22.475295537996846 M-0.7992461656685919 -0.3516629885975271 C1.8465883640234035 3.301925584290145, 12.722224687988241 19.36294293334692, 15.247084362257263 23.57928538387436" stroke="red" stroke-width="2" fill="none"></path></g></g><g><g transform="translate(431.0113360930195 168.09201937413644) rotate(23.382310690492922 11.753469259340307 -8.231379603547126)"><path d="M0.45504325032234183 0.5927363097667695 C3.9734837951144755 -2.3219656822424044, 18.23040732834795 -14.199051581492476, 21.99361716024946 -17.055495516861026 M-0.765197772597894 -0.14168107294477528 C3.0557220336521596 -2.8999532296940345, 20.414348628049062 -12.488573709234425, 24.272136291278485 -15.578521614808757" stroke="red" stroke-width="2" fill="none"></path></g></g><g transform="translate(447.84375 10) rotate(0 23 12.5)"><text x="0" y="17" font-family="Virgil, Segoe UI Emoji" font-size="20px" fill="#000" text-anchor="start" style="white-space: pre;" direction="ltr">email</text></g><g><g transform="translate(487.38033789063206 284.2441136493872) rotate(0 28.393092336731797 46.480067645146306)"><path d="M56.0664425228089 -0.11514542698860164 C54.17297404647902 6.3205492577117495, 54.529247515222586 28.989787388773536, 45.98626616342581 39.20690441796888 C37.443284811629034 49.42402144716422, 12.647546058376228 52.16984651290906, 4.808554412028254 61.18755674818346 C-3.0304372343197192 70.20526698345786, 0.20147523200030304 87.6986430755546, -1.0476837146620255 93.31316582961526 M57.833868388125666 -1.2212007214967162 C55.761383048986126 4.79150927819988, 54.117856130406786 27.18625094542643, 45.15114496223285 37.29140163258982 C36.18443379405891 47.396552319753205, 11.629889249964524 49.92804767161702, 4.0336013790820395 59.40970340148361 C-3.562686491800444 68.8913591313502, 0.40960722400697724 88.718029229735, -0.42658226306205504 94.18133601178933" stroke="#000" stroke-width="2" fill="none"></path></g><g transform="translate(487.38033789063206 284.2441136493872) rotate(0 28.393092336731797 46.480067645146306)"><path d="M-11.23734640589138 66.48202973320966 C-6.6611490371273 75.64851487119923, -1.9376230994232664 86.34713715235674, -1.1748067301011633 92.63808756699372 M-11.781576315669021 65.96005485668664 C-6.194683129322389 76.95487187089542, -2.3681728291007147 87.97075375390773, -0.6737557064986777 94.87204788257885" stroke="#000" stroke-width="2" fill="none"></path></g><g transform="translate(487.38033789063206 284.2441136493872) rotate(0 28.393092336731797 46.480067645146306)"><path d="M9.282197376258416 66.22063853542889 C6.925716086013953 75.33428009306371, 4.715272230926295 86.12123175857576, -1.1748067301011633 92.63808756699372 M8.737967466480775 65.69866365890587 C6.269044407307162 76.6115387650705, 2.037200247375278 87.73007317032426, -0.6737557064986777 94.87204788257885" stroke="#000" stroke-width="2" fill="none"></path></g></g><g transform="translate(428.84375 382.75000000000006) rotate(0 64.5 12.5)"><text x="0" y="17" font-family="Virgil, Segoe UI Emoji" font-size="20px" fill="#000" text-anchor="start" style="white-space: pre;" direction="ltr">your address</text></g></svg>