<svg version="1.1" xmlns="http://www.w3.org/2000/svg" viewBox="0 0 993.5164199369133 260.8813861577019" width="2980.54925981074" height="782.6441584731058">
  <!-- svg-source:excalidraw -->
  
  <defs>
    <style>
      @font-face {
        font-family: "Virgil";
        src: url("https://excalidraw.com/FG_Virgil.woff2");
      }
      @font-face {
        font-family: "Cascadia";
        src: url("https://excalidraw.com/Cascadia.woff2");
      }
    </style>
  </defs>
  <g transform="translate(374.8397917871598 93.95493541546176) rotate(0 92.5269905533064 39.66044919992288)"><path d="M-0.4152085408568382 1.4685242995619774 C64.4312789821005 0.9253567497531276, 131.05050973015548 -0.19366442753874247, 185.24361212912572 1.679087720811367 M-0.039765555411577225 0.476874727755785 C47.73532003957365 -1.6401040525855597, 97.4032698618538 -1.8443587990226324, 185.84571262437476 -0.3279061131179333 M183.31132109824193 0.0587359294295311 C184.44241897698194 21.9436256452249, 183.79581896897108 42.88719303436011, 184.43280037108434 78.30561370511452 M184.0621175392307 -0.2462611012160778 C186.25943295819036 20.921075587989684, 184.72305469376317 40.99956416318177, 184.92429622251166 79.30185795311729 M185.9228115862943 78.63698310513894 C111.63371981387053 80.05150679175308, 38.78582829779441 78.17822841231278, 1.0013342276215553 78.72539991994302 M185.72886642057074 78.70988846306602 C141.57154779293296 80.8255832683834, 98.2033336269651 80.26151864645804, 0.02953759953379631 79.13036549572746 M1.2007570639252663 81.06513113637368 C-0.10261656732185498 47.31877726138105, 1.7953238299407182 20.767331528478266, 1.065232552587986 -0.15945402532815933 M0.9193433932960033 78.94583619122307 C-0.33355595266047156 59.481643294901005, 0.030280931838124636 40.44251830019027, 0.5524800233542919 0.7632073350250721" stroke="black" stroke-width="2" fill="none"></path></g><g transform="translate(398.6976606819826 110.83660665575559) rotate(0 63 23)"><text x="0" y="32" font-family="Virgil, Segoe UI Emoji" font-size="36px" fill="black" text-anchor="start" style="white-space: pre;" direction="ltr">Mailway</text></g><g transform="translate(10 103.69004241372653) rotate(0 52 23)"><text x="0" y="32" font-family="Virgil, Segoe UI Emoji" font-size="36px" fill="black" text-anchor="start" style="white-space: pre;" direction="ltr">hello@</text></g><g transform="translate(23.10719105455928 204.8813861577019) rotate(0 42.5 23)"><text x="0" y="32" font-family="Virgil, Segoe UI Emoji" font-size="36px" fill="black" text-anchor="start" style="white-space: pre;" direction="ltr">bob@</text></g><g><g transform="translate(160.66359794329674 46.82725842537087) rotate(0 107.03649556960494 36.37957507714242)"><path d="M0.1567706599831582 0.2765280470252036 C16.29318359573573 7.184410494580602, 61.84354486890396 28.92461118017544, 97.6995921942526 40.929173179058644 C133.55563951960124 52.93373517794185, 195.78452075310332 66.84093425890936, 215.293054612075 72.30390004032445 M-1.2200634728651494 -0.6238986736256629 C14.63619946928896 6.543642782611508, 60.4353042530015 30.19184095211547, 96.48135965626962 42.52633220237149 C132.52741505953773 54.860823452627514, 195.2628420706587 68.52925397479481, 215.0562689467436 73.38304882791047" stroke="black" stroke-width="2" fill="none"></path></g><g transform="translate(160.66359794329674 46.82725842537087) rotate(0 107.03649556960494 36.37957507714242)"><path d="M185.72603296181515 76.05934712941561 C196.59482644712045 77.23755048918498, 206.77335042159845 75.01408371855986, 216.6380866109496 73.30351771708732 M185.63774966514066 76.53633335511003 C196.44244831290416 75.41301810685711, 205.65272833459923 74.69673659841284, 215.57030695445 72.51171882372503" stroke="black" stroke-width="2" fill="none"></path></g><g transform="translate(160.66359794329674 46.82725842537087) rotate(0 107.03649556960494 36.37957507714242)"><path d="M190.42419617107245 56.083179708085254 C199.45232166884614 64.72714544232937, 207.87642833874185 69.96330326162047, 216.6380866109496 73.30351771708732 M190.33591287439796 56.56016593377967 C199.35130162719315 62.37402179257177, 206.92808915597433 68.60320345059169, 215.57030695445 72.51171882372503" stroke="black" stroke-width="2" fill="none"></path></g></g><g><g transform="translate(144.1782243398079 199.18451128597843) rotate(0 115.71390216721778 -16.272751155410106)"><path d="M0.2765280470252036 18.72943594679717 C11.08996765370351 15.759442490735053, 45.47188550197808 10.130548611794138, 64.36251613379609 1.580887916799586 C83.2531467656141 -6.968772778194966, 85.727386829966 -23.368522364049795, 113.62031183793331 -32.56852822317014 C141.51323684590065 -41.768534082290486, 212.09958061185836 -49.96266054644553, 231.72006618160003 -53.619147237922505 M-1.03743345762603 21.07364492710229 C9.673276120720997 17.772453891835134, 44.53191961674308 9.277302433269568, 63.47420444226046 -0.012774199923549334 C82.41648926777783 -9.302850833116668, 84.4511032705114 -25.912220797286942, 112.61627549547825 -34.66681487205642 C140.7814477204451 -43.4214089468259, 212.87250982137567 -49.21678793613171, 232.46523779206157 -52.540338648540406" stroke="black" stroke-width="2" fill="none"></path></g><g transform="translate(144.1782243398079 199.18451128597843) rotate(0 115.71390216721778 -16.272751155410106)"><path d="M204.9168593461727 -38.6536405844789 C214.290565879375 -43.17913094189725, 220.24157665979163 -44.35840925839564, 232.38570668123842 -51.586589193028836 M205.39384557186713 -38.05154008922987 C211.39614313815932 -42.33943267711989, 217.8338797603038 -44.5101346360309, 231.59390778787613 -52.51097068382564" stroke="black" stroke-width="2" fill="none"></path></g><g transform="translate(144.1782243398079 199.18451128597843) rotate(0 115.71390216721778 -16.272751155410106)"><path d="M202.35697830569978 -59.0145593123867 C212.41472165488665 -58.316792199007274, 219.02316929573087 -54.266914053835066, 232.38570668123842 -51.586589193028836 M202.8339645313942 -58.41245881713767 C209.36861530407333 -58.18979907834403, 216.37464129327037 -55.8404106761992, 231.59390778787613 -52.51097068382564" stroke="black" stroke-width="2" fill="none"></path></g></g><g transform="translate(19.366782340467125 10) rotate(0 54 23)"><text x="0" y="32" font-family="Virgil, Segoe UI Emoji" font-size="36px" fill="black" text-anchor="start" style="white-space: pre;" direction="ltr">alice@</text></g><g><g transform="translate(165.6854636591479 138.26373626373623) rotate(0 102.83898942257065 -2.950103861921633)"><path d="M0.11377861350774765 1.0074526324868203 C34.561624803817104 0.2550076192169798, 172.25478945511497 -3.9376993270966354, 206.96360518888136 -5.029312126011007 M-1.2856263437401503 0.49076131920330246 C32.940279346131 -0.5815803470630783, 170.87974274240537 -6.117568531753788, 205.77722168018607 -6.907660356330105" stroke="black" stroke-width="2" fill="none"></path></g><g transform="translate(165.6854636591479 138.26373626373623) rotate(0 102.83898942257065 -2.950103861921633)"><path d="M179.6137633838034 3.5067731562094746 C187.75227464121056 2.21007581271518, 195.8917887942501 -2.026737065828442, 204.21718867918042 -7.260651900040337 M177.6067695498741 3.907415554954296 C187.55192974162003 0.7894528147422495, 195.88621575452407 -3.4627660797593762, 205.39824642663388 -6.422124574499556" stroke="black" stroke-width="2" fill="none"></path></g><g transform="translate(165.6854636591479 138.26373626373623) rotate(0 102.83898942257065 -2.950103861921633)"><path d="M178.94706135566193 -17.003602530050202 C187.2129841913653 -11.675178126913583, 195.56787243699645 -9.28623712188975, 204.21718867918042 -7.260651900040337 M176.94006752173263 -16.60296013130538 C187.0319860631958 -12.808878658508306, 195.5911237875462 -10.143774849914458, 205.39824642663388 -6.422124574499556" stroke="black" stroke-width="2" fill="none"></path></g></g><g transform="translate(688.7079092986146 24.837269113865148) rotate(0 38 23)"><text x="0" y="32" font-family="Virgil, Segoe UI Emoji" font-size="36px" fill="black" text-anchor="start" style="white-space: pre;" direction="ltr">drop</text></g><g><g transform="translate(561.580249724147 101.47631917910388) rotate(0 60.77564950117335 -12.917701285954195)"><path d="M-0.4539772287011147 13.762313516021738 C6.2992502534628425 11.91193260454167, 20.223267929866655 12.095625578458954, 40.63314350649149 3.202287311133646 C61.043019083116334 -5.691050956191661, 108.57392821021068 -32.69490484452689, 122.0052762310479 -39.59771608793011 M1.5085459968913346 12.960936089142258 C8.17684198893202 11.832595437202272, 20.178126771213233 13.336756219068144, 40.18337060708919 4.714660262445637 C60.18861444296515 -3.90743569417687, 108.0110810564148 -31.839865725598056, 121.54000901214705 -38.77163965059279" stroke="black" stroke-width="2" fill="none"></path></g><g transform="translate(561.580249724147 101.47631917910388) rotate(0 60.77564950117335 -12.917701285954195)"><path d="M102.51793484383795 -14.649567022526114 C107.60077508684886 -22.178531907074742, 112.24720215799347 -30.461065975279674, 122.28520257554875 -39.533140687177166 M101.92716465511891 -15.717346679025738 C108.45183464134792 -24.67820021626835, 116.45083060056186 -32.76869191563863, 120.83773375458942 -38.300597214976534" stroke="black" stroke-width="2" fill="none"></path></g><g transform="translate(561.580249724147 101.47631917910388) rotate(0 60.77564950117335 -12.917701285954195)"><path d="M92.66104914494416 -32.64850606639151 C100.94552265099783 -34.569841363252, 108.64247399750431 -37.28203585754552, 122.28520257554875 -39.533140687177166 M92.07027895622512 -33.716285722891136 C102.27339573818016 -35.817335649995826, 114.00985811454137 -37.08311290347605, 120.83773375458942 -38.300597214976534" stroke="black" stroke-width="2" fill="none"></path></g></g><g><g transform="translate(561.580249724147 135.18387097609576) rotate(0 57.97935115249879 -3.340835967265349)"><path d="M0.46519336849451065 1.840495158416136 C13.162057774982664 0.6809324518420095, 58.2152496594837 -5.1621925293331925, 77.18863907141574 -6.519948908253355 C96.16202848334777 -7.877705287173517, 107.88885872220078 -6.300843131342175, 114.30552984008668 -6.306043115104837 M-0.7497188423853367 1.2931637773019364 C11.696796786629843 -0.18223632714559201, 56.63918464291786 -7.276607179209028, 76.21554130787923 -8.342092578545927 C95.79189797284062 -9.407577977882825, 110.04929456578957 -5.542237257133442, 116.70842114738291 -5.099748618719456" stroke="black" stroke-width="2" fill="none"></path></g><g transform="translate(561.580249724147 135.18387097609576) rotate(0 57.97935115249879 -3.340835967265349)"><path d="M88.96519418049844 1.1485759407892582 C99.62054466525358 -2.8752156906920794, 109.57328317297439 -2.9995970651403328, 115.94692011079853 -3.5162855831955646 M87.89741452399882 0.35677704742697447 C95.27119803040247 -0.8958506306938134, 103.56329309664633 -2.9100130800758266, 117.17946358299916 -5.410338986483691" stroke="black" stroke-width="2" fill="none"></path></g><g transform="translate(561.580249724147 135.18387097609576) rotate(0 57.97935115249879 -3.340835967265349)"><path d="M91.75848410695201 -19.181636398795703 C101.26442656082212 -15.388725333773403, 110.14466914979815 -7.707232511301925, 115.94692011079853 -3.5162855831955646 M90.69070445045239 -19.973435292157987 C97.2457218892862 -15.788484284119008, 104.79142366185347 -12.370223122339087, 117.17946358299916 -5.410338986483691" stroke="black" stroke-width="2" fill="none"></path></g></g><g transform="translate(685.5164199369133 106.5748577663473) rotate(0 149 23)"><text x="0" y="32" font-family="Virgil, Segoe UI Emoji" font-size="36px" fill="black" text-anchor="start" style="white-space: pre;" direction="ltr">forward to Alice</text></g><g><g transform="translate(558.9454979510974 161.0705152281284) rotate(0 62.83872156902282 16.478604161018893)"><path d="M-0.04771866649389267 -6.519948908253355 C12.701436602019593 0.34252119942437265, 55.75061306286176 27.777627141075673, 76.96012497957543 35.03171266302969 C98.16963689628909 42.2857981849837, 118.75065457754046 36.66518674902903, 127.20935283378813 37.00456422347072 M-1.531909695742652 -7.265121775106309 C11.546618131662607 -0.2998614026432911, 57.81228575319555 28.900062243864408, 79.18066912063144 36.45794557798225 C100.54905248806732 44.01582891210009, 118.46550129239655 37.83095956797997, 126.67839050887267 38.08217822960074" stroke="black" stroke-width="2" fill="none"></path></g><g transform="translate(558.9454979510974 161.0705152281284) rotate(0 62.83872156902282 16.478604161018893)"><path d="M100.57941659729836 49.48941781861675 C108.3346622631787 47.41252950369025, 117.09069873960405 43.857926430777724, 126.0225782826368 37.37020559808667 M99.65503510650156 50.6704755660702 C108.65962689352125 46.45339855216635, 117.26021422688648 42.71558793641462, 126.17074816150705 37.67842854386623" stroke="black" stroke-width="2" fill="none"></path></g><g transform="translate(558.9454979510974 161.0705152281284) rotate(0 62.83872156902282 16.478604161018893)"><path d="M98.57334940549937 29.066496949949908 C107.16970934337472 33.90899989883354, 116.60533340687138 37.272990365970394, 126.0225782826368 37.37020559808667 M97.64896791470257 30.24755469740336 C107.39738382452572 32.551742686766865, 116.63681370514564 35.317717608936235, 126.17074816150705 37.67842854386623" stroke="black" stroke-width="2" fill="none"></path></g></g><g transform="translate(697.952590149679 179.18478684436144) rotate(0 142 23)"><text x="0" y="32" font-family="Virgil, Segoe UI Emoji" font-size="36px" fill="black" text-anchor="start" style="white-space: pre;" direction="ltr">forward to Bob</text></g></svg>