<svg version="1.1" xmlns="http://www.w3.org/2000/svg" viewBox="0 0 1137.7626062596914 362.2863144584" width="2275.525212519383" height="724.5726289168">
  <!-- svg-source:excalidraw -->
  
  <defs>
    <style>
      @font-face {
        font-family: "Virgil";
        src: url("https://excalidraw.com/FG_Virgil.woff2");
      }
      @font-face {
        font-family: "Cascadia";
        src: url("https://excalidraw.com/Cascadia.woff2");
      }
    </style>
  </defs>
  <g transform="translate(180.56147632365463 261.4730557827721) rotate(0 92.91666666666669 39.58333333333334)"><path d="M1.6914275400340557 -1.1012150160968304 C53.06934199901299 -1.5117384282716861, 107.60138167161497 -0.9102060882219425, 186.3635335279008 1.2935919649899006 M-0.5545567329972982 0.991941487416625 C46.259058760013446 -0.34037331847163554, 91.62869880441579 0.4481177517989028, 186.21144582269096 -0.13202621974051 M185.52060464148724 0.2733158953487873 C186.6275154843461 33.178249989170595, 183.99184732581492 62.2091492014006, 186.25581207995617 80.6382448958854 M185.40542460915947 0.4179754015058279 C186.52086415879123 17.667579623715337, 186.94702705733172 36.99796959726762, 186.3852682852497 79.61873062017065 M185.06623402362072 78.51588752741617 C136.14523519156504 79.95629365573018, 90.1906174325074 81.99714942107289, -1.6375322826206684 77.8458522843818 M186.31971032855415 79.07060296895605 C140.57272872561592 78.55278123351748, 92.87603436938178 78.36556811067278, 0.4177530352026224 78.52342893245321 M0.12799830362200737 77.77278080458444 C0.16588098610130458 52.07160678831862, -0.7583537617853531 28.438048281085997, -0.24468152597546577 0.9780596382915974 M0.5589669290930033 79.05930091502768 C-0.5934281112470975 55.52691790321843, 0.7418496249398837 33.29785482243946, 0.5747488681226969 -0.2973868492990732" stroke="#000000" stroke-width="2" fill="none"></path></g><g transform="translate(217.644809656988 284.38972244943886) rotate(0 58 17.5)"><text x="0" y="25" font-family="Virgil, Segoe UI Emoji" font-size="28px" fill="#000000" text-anchor="start" style="white-space: pre;" direction="ltr">Frontline</text></g><g transform="translate(348.429272926358 89.16666666666663) rotate(0 92.91666666666669 39.58333333333334)"><path d="M-1.3829273097217083 0.7158324234187603 C65.66504251537846 0.91316797042576, 126.54906046669933 3.4099308421680083, 186.18671233331168 1.957707952708006 M-0.8839431647211313 -0.8205042537301779 C60.02627204467234 0.5944713779569915, 121.87609868900233 1.4862791129232695, 184.98639887136721 -0.37341356836259365 M187.0709162441393 -0.6353124864399433 C186.05644991675706 30.910494827510174, 183.71647300998063 61.18489024570834, 185.66072673474753 79.27354632938903 M185.61199253362918 -0.3417425211519003 C186.20036054037826 20.459860086285826, 187.07383352898376 40.41111517480265, 186.20195495647692 78.90103742914897 M186.75339622174704 79.52235328281921 C134.94282334220287 78.70731501425618, 81.38651147950442 78.38719098414296, -0.6755628697574139 81.07138060654205 M185.77727090877795 78.9773709519456 C145.02363993243006 80.79245633375832, 103.6313733207062 81.30285156262109, -0.28137137927114964 79.08881786900264 M0.46443938091397285 78.12002276505035 C1.002194022837405 54.50128884039199, -0.48610594302105425 27.751523879356682, 0.47646819427609444 -0.4037940986454487 M0.5820457693189383 79.09799746113521 C-0.10110405840290071 52.884615022844336, 0.3307223542748642 28.026085260945067, 0.22597471438348293 0.025438005104660988" stroke="#000000" stroke-width="2" fill="none"></path></g><g transform="translate(413.0126062596914 114.58333333333337) rotate(0 30.5 17.5)"><text x="0" y="25" font-family="Virgil, Segoe UI Emoji" font-size="28px" fill="#000000" text-anchor="start" style="white-space: pre;" direction="ltr">auth</text></g><g><g transform="translate(280.09593959362456 255.5) rotate(0 78.23131360261976 -42.155968246331724)"><path d="M-0.12489681914448747 3.6607121808411334 C18.283251064201217 -3.6494194759441463, 83.63580698264715 -25.34655000076257, 110.0086620498003 -40.61877680982019 C136.38151711695343 -55.89100361887781, 150.33436371552628 -79.98649415405238, 158.11223358377433 -87.9726486735046 M-1.6496063785348087 2.565570850638092 C16.682522464166727 -4.499671740821928, 82.76858443600078 -24.196099167760458, 109.32151181878722 -39.10757804194021 C135.87443920157364 -54.01905691611996, 149.8065235601539 -78.75863413498509, 157.6679579181838 -86.9033023944404" stroke="#d9480f" stroke-width="2" fill="none"></path></g><g transform="translate(280.09593959362456 255.5) rotate(0 78.23131360261976 -42.155968246331724)"><path d="M147.8914906788927 -57.659031436250174 C150.61986227302538 -64.93922429389879, 152.44825010140912 -74.81549990090696, 155.9417847072947 -87.01036522223615 M148.3408956766438 -58.43038499209341 C150.91049916427417 -67.65518098271859, 153.41357164270215 -75.99626469350167, 156.76140768400012 -86.98965667433106" stroke="#d9480f" stroke-width="2" fill="none"></path></g><g transform="translate(280.09593959362456 255.5) rotate(0 78.23131360261976 -42.155968246331724)"><path d="M131.87648393911897 -70.49022629529748 C138.76698068292436 -74.37511016424025, 144.81235300406055 -80.87274531087905, 155.9417847072947 -87.01036522223615 M132.3258889368701 -71.26157985114071 C139.63956500262654 -76.58560314635712, 146.92330874987678 -81.09642155634809, 156.76140768400012 -86.98965667433106" stroke="#d9480f" stroke-width="2" fill="none"></path></g></g><g transform="translate(562.679272926358 258.41666666666663) rotate(0 92.91666666666669 39.58333333333334)"><path d="M1.3847734816372395 0.4007321111857891 C42.284378390293575 2.407848611023898, 83.78626677673311 -0.2234822367162752, 187.55897016202414 -1.784642267972231 M-0.2724331859499216 -0.6223189886659384 C70.0349916429259 -0.8331391639231394, 140.522933668457 -0.8895221180437753, 186.70490157169604 -0.5295659955590963 M184.53530664121115 -1.0464554317295551 C183.93597323129268 18.415175128262497, 184.52688545415492 36.704392815940096, 184.02325327073538 80.79196499908966 M184.87451684040332 0.9690697733312845 C185.34660790992595 19.33571516955272, 185.80740122629024 37.19411509763451, 185.20495587152743 78.75820783215266 M185.87114126359427 80.19326829041046 C142.48342842531082 80.62108658249493, 99.56152445543559 80.25319109852428, -0.08094633743166924 79.80601250256103 M186.53181296152377 79.47679904537898 C113.17445641771582 81.15818262340814, 40.38421375025064 80.95171040537149, 0.048303043469786644 78.80287799673778 M0.07111035659909248 79.73469006145996 C-0.5019229469665636 57.371626103141665, 1.3798752011886488 37.40621763188392, 0.04890226200222969 0.5610891096293926 M0.32390586100518703 78.42648324805003 C-0.10928430167647718 53.97892864933239, -1.1124764284274233 29.82598502778759, -0.2337051872164011 0.8169078771024942" stroke="#000000" stroke-width="2" fill="none"></path></g><g transform="translate(581.8459395930247 280.5) rotate(0 72.5 17.5)"><text x="72.5" y="25" font-family="Virgil, Segoe UI Emoji" font-size="28px" fill="#000000" text-anchor="middle" style="white-space: pre;" direction="ltr">Forwarding</text></g><g transform="translate(739.179272926358 82.91666666666663) rotate(0 92.91666666666674 39.58333333333334)"><path d="M-0.9986933954060078 0.07111035659909248 C49.55761727861441 0.09197951972795049, 96.42796527563287 1.973777667883163, 184.56052044158184 0.04890226200222969 M-0.13821292482316494 0.32390586100518703 C60.22326955835646 -1.0733051956476027, 121.8049611632402 -2.0764973223985486, 186.6242381477108 -0.2337051872164011 M184.37976196532452 -1.3435051552951336 C186.25608944341855 29.934931342024367, 185.8131779377194 60.37082709837707, 186.32605186228955 79.18277791018289 M185.65265907285118 0.6727722641080618 C184.58936425539048 31.2981246537529, 186.0638631829837 61.33812509942801, 186.64860458609962 79.12530894639593 M187.27715984111035 78.1160235690574 C137.52444257416454 78.52909462481429, 88.56989348959178 79.95714979201247, 1.8193881027400494 78.84977403158945 M184.91260595557594 78.73541493775946 C135.86189735168594 80.06500574184273, 87.31472306481253 80.66154887510154, -0.7465649303048849 79.73091591956717 M0.7666203491389751 80.69753995413583 C0.5663157334395995 47.124967339914306, -1.1549084553650268 19.229629375350974, -0.8642153032124043 -0.5369013659656048 M0.938075477257371 79.00802935721975 C0.29767979068371153 58.75715970853345, 0.3597603527984271 38.72940979556492, 0.7553596440702677 -0.03462108410894871" stroke="#000000" stroke-width="2" fill="none"></path></g><g transform="translate(792.0959395930247 105) rotate(0 40 17.5)"><text x="40" y="25" font-family="Virgil, Segoe UI Emoji" font-size="28px" fill="#000000" text-anchor="middle" style="white-space: pre;" direction="ltr">maildb</text></g><g transform="translate(941.929272926358 254.66666666666663) rotate(0 92.91666666666674 39.58333333333334)"><path d="M0.20485300943255424 0.45961831882596016 C40.056768384296454 0.23846120109471203, 85.5761146368459 -0.0787190748223412, 185.15854850535595 -0.5384312979876995 M-0.8727404531091452 -0.054412031546235085 C68.07547974726187 0.1507870767731221, 137.75178260449323 1.3138871405739339, 186.39098663566017 0.4825566168874502 M184.20926585917675 0.6389549858868122 C184.5873100230626 21.605257530231036, 185.48223192190446 40.09632890392096, 184.73546221976483 79.83014359946054 M186.2458083176365 0.5799672957509756 C185.21696995936028 18.539138046558953, 185.60858123741738 36.591606755740955, 185.80363775727653 79.73151482703787 M184.71980384116375 79.98455014700693 C134.12202209808555 80.20648539840866, 81.5117395920679 79.47340393840958, 0.632832121104002 78.60598447794717 M186.1103484773388 78.96468295219046 C136.53806704018888 77.46061400456045, 88.12172470521182 77.64398155493353, 0.30218505300581455 79.94136031034094 M1.1963058225810528 78.04502847666544 C2.087566425946231 62.3138196153256, -0.025072405192379965 45.41621747395646, -1.7923675067722797 0.6280805952847004 M0.6052184049040079 79.66428978803259 C1.0942826880297314 63.7150969640352, -0.5951035009541858 47.21064252809933, 0.3536491934210062 -0.9997843746095896" stroke="#000000" stroke-width="2" fill="none"></path></g><g transform="translate(996.5959395930247 278) rotate(0 47 17.5)"><text x="47" y="25" font-family="Virgil, Segoe UI Emoji" font-size="28px" fill="#000000" text-anchor="middle" style="white-space: pre;" direction="ltr">mailout</text></g><g><g transform="translate(1033.8459395930247 253) rotate(0 -53.009836953133345 -65.80027184055652)"><path d="M0.04641470387578006 -1.115829212218523 C-2.1287389727930224 -10.275622358669839, -5.375263982266187 -37.69268797114492, -12.741903000324964 -54.299728686362506 C-20.10854201838374 -70.90676940158009, -28.599388469507296 -87.72247825339436, -44.15341940447688 -100.75807350352406 C-59.70745033944646 -113.79366875365376, -95.91443626607457 -127.35299968595307, -106.06608861014247 -132.51330018714071 M-1.3883563059289008 0.9127565060276539 C-3.660361951660986 -8.148435294109706, -5.979646441908554 -35.75839736777358, -13.160697539122776 -53.05091099548154 C-20.341748636336998 -70.34342462318949, -29.047673131696257 -89.78140677678398, -44.47466288921423 -102.8423252602201 C-59.9016526467322 -115.9032437436562, -95.48318880654561 -126.73688076315136, -105.72263608423061 -131.41642189609817" stroke="#d9480f" stroke-width="2" fill="none"></path></g><g transform="translate(1033.8459395930247 253) rotate(0 -53.009836953133345 -65.80027184055652)"><path d="M-77.58950245010755 -129.08127199054599 C-86.41981691120348 -129.5522285467472, -94.45394313545027 -130.8700406821725, -105.74480306279845 -129.43864434423855 M-76.3736081812819 -130.64902150758445 C-86.42485654773152 -131.67097377695117, -96.75101423363131 -131.51194923922685, -106.07330680374987 -130.64272381017915" stroke="#d9480f" stroke-width="2" fill="none"></path></g><g transform="translate(1033.8459395930247 253) rotate(0 -53.009836953133345 -65.80027184055652)"><path d="M-85.02751446229567 -109.95547842028112 C-91.53992199170048 -116.65956955234213, -97.15110398912806 -124.20763932091917, -105.74480306279845 -129.43864434423855 M-83.81162019347002 -111.52322793731959 C-90.9791252392994 -119.45257468894748, -98.59033199781142 -126.27466162368798, -106.07330680374987 -130.64272381017915" stroke="#d9480f" stroke-width="2" fill="none"></path></g></g><g><g transform="translate(648.8459395930247 258) rotate(0 45.66544879245572 -70.10633937004022)"><path d="M0.7087276406586169 -1.0080577678978442 C3.23543095861872 -12.728863182415564, 7.10831665471196 -48.25509373222788, 16.29348580315709 -69.64679580405354 C25.47865495160222 -91.0384978758792, 43.303784961253406 -117.7711353369057, 55.819742531329396 -129.3582701988518 C68.33570010140538 -140.94540506079792, 85.61781889076035 -137.3143241075178, 91.38923122361302 -139.16960497573018 M-0.3783290773350745 1.077107958616689 C1.8949971937419228 -10.57712755032194, 6.167189029483126 -46.506691153425095, 15.36827038618736 -68.58018834996037 C24.569351742891595 -90.65368554649564, 42.10466635021381 -119.2456088291388, 54.828159062890336 -131.36387522059493 C67.55165177556685 -143.48214161205107, 85.47787530762764 -139.79102550603758, 91.70922666224651 -141.28978669869713" stroke="#d9480f" stroke-width="2" fill="none"></path></g><g transform="translate(648.8459395930247 258) rotate(0 45.66544879245572 -70.10633937004022)"><path d="M62.52645963005487 -129.23385920915308 C73.49230719958547 -134.91260224031168, 86.90463766696105 -138.69019280666697, 93.09321836936287 -142.62609248462132 M64.36688242614035 -130.18506936709883 C72.07784722621908 -132.1848748719083, 77.78509429534398 -134.5519561496088, 91.47759535904042 -140.3644237596821" stroke="#d9480f" stroke-width="2" fill="none"></path></g><g transform="translate(648.8459395930247 258) rotate(0 45.66544879245572 -70.10633937004022)"><path d="M61.25804836052525 -149.71583018943645 C72.83993597755472 -147.32317997902572, 86.75257709521372 -143.02188598609138, 93.09321836936287 -142.62609248462132 M63.09847115661073 -150.6670403473822 C70.96108591800667 -147.35180821623115, 76.99706762122096 -144.41056923741928, 91.47759535904042 -140.3644237596821" stroke="#d9480f" stroke-width="2" fill="none"></path></g></g><g><g transform="translate(366.34593959302475 299.25) rotate(0 97.31164310285357 -0.5612874008511142)"><path d="M0.6240118928253651 -0.7219214268028735 C33.28756925538182 -1.2463085457071315, 162.74019636586308 -2.2903988313598687, 195.1308067984879 -2.636040680488736 M-0.5075205927807838 1.5134658787865192 C32.083883096305655 1.1291066885326404, 161.8026805889886 -0.6844643402302766, 194.25143490406685 -1.216756279278711" stroke="#087f5b" stroke-width="2" fill="none"></path></g><g transform="translate(366.34593959302475 299.25) rotate(0 97.31164310285357 -0.5612874008511142)"><path d="M165.01420906267072 9.682712276746003 C172.22014813303946 6.817689776391961, 178.3771367053173 5.677498947847646, 195.76165828156286 -1.2241011696645772 M166.74325295059884 10.360226455424396 C176.55375731443667 5.463082165664226, 187.182674299266 1.1122665479467813, 194.49045928056353 -1.2710784083941733" stroke="#087f5b" stroke-width="2" fill="none"></path></g><g transform="translate(366.34593959302475 299.25) rotate(0 97.31164310285357 -0.5612874008511142)"><path d="M164.70701627590134 -10.836196928608853 C172.070593525905 -9.001485701239485, 178.29796668862645 -5.440345369124273, 195.76165828156286 -1.2241011696645772 M166.43606016382947 -10.15868274993046 C176.40893718307666 -7.405778943894347, 187.15235714863178 -4.108380259565137, 194.49045928056353 -1.2710784083941733" stroke="#087f5b" stroke-width="2" fill="none"></path></g></g><g><g transform="translate(747.5959395930247 301.75) rotate(0 97.34490334956911 -1.6857522829575657)"><path d="M0.9799323968589306 0.7167287774384021 C33.18816369498769 0.18305408433079717, 160.3092600596448 -1.640994220227003, 192.56481572911144 -2.5799400620162487 M0.035258175870403585 0.04740744025446464 C32.65166461670461 -0.8439537185337395, 162.30237772200567 -3.3783143976237624, 194.65454852326772 -4.088233343353495" stroke="#087f5b" stroke-width="2" fill="none"></path></g><g transform="translate(747.5959395930247 301.75) rotate(0 97.34490334956911 -1.6857522829575657)"><path d="M167.87670371029003 4.778287909218776 C175.37200702238994 5.163232821282779, 178.27295462487697 2.4844774805945917, 194.61487109332344 -3.3574541835393754 M167.1491711279325 6.053004929089654 C174.1079377828189 3.449375874135102, 181.21179922855328 1.9455477685382654, 194.30752902409992 -5.066477672224864" stroke="#087f5b" stroke-width="2" fill="none"></path></g><g transform="translate(747.5959395930247 301.75) rotate(0 97.34490334956911 -1.6857522829575657)"><path d="M167.4520074963008 -15.738525574157798 C175.1568557073111 -10.37244116890498, 178.16098424383316 -8.066588903246757, 194.61487109332344 -3.3574541835393754 M166.72447491394328 -14.46380855428692 C173.79731265088645 -11.484365135736962, 181.01670895130047 -7.406775309616412, 194.30752902409992 -5.066477672224864" stroke="#087f5b" stroke-width="2" fill="none"></path></g></g><g><g transform="translate(18.845939593024752 213) rotate(348.4505941539726 75.84046946623828 44.83065454289317)"><path d="M-0.09603212401270866 -1.166658217459917 C12.86921464080612 6.768259685486556, 52.17742519651851 33.25832781121135, 77.7411849923432 48.59076539799571 C103.30494478816787 63.92320298478007, 140.89177498295902 83.9952024154365, 153.2865266509354 90.82796730324625 M-1.6055877184588463 0.8352422730345279 C11.227142309077704 8.87473482322879, 51.16320455573809 35.36377670031972, 76.91976164969616 50.04459248316474 C102.67631874365422 64.72540826600977, 140.39510113331488 82.18180624318309, 152.9337548452895 88.92013697010465" stroke="#087f5b" stroke-width="2" fill="none"></path></g><g transform="translate(18.845939593024752 213) rotate(348.4505941539726 75.84046946623828 44.83065454289317)"><path d="M121.19476314945409 85.81724178141201 C131.71595282075185 87.7867592622192, 142.17477979312358 86.86214426907551, 152.24601272004656 90.92000936773606 M122.29431886723528 84.47129479704643 C131.3864071722156 87.38770689858099, 141.47586279774995 87.85732571786463, 152.931524355663 89.25217220802791" stroke="#087f5b" stroke-width="2" fill="none"></path></g><g transform="translate(18.845939593024752 213) rotate(348.4505941539726 75.84046946623828 44.83065454289317)"><path d="M130.41825346088447 67.48565077406109 C138.36095461745776 74.8704311035461, 146.09139290870613 79.36846022045869, 152.24601272004656 90.92000936773606 M131.51780917866566 66.1397037896955 C138.01432260431991 74.3926605110984, 145.41028567434165 80.21556775394241, 152.931524355663 89.25217220802791" stroke="#087f5b" stroke-width="2" fill="none"></path></g></g><g><g transform="translate(25.845939593024752 352.5) rotate(0 77.21929507329594 -21.097516931514264)"><path d="M-0.709399301558733 -0.21368554159998898 C6.992682450264692 -5.742109939704338, 29.617675655335184 -26.036774648477632, 45.385221426934 -32.67650046870112 C61.15276719853282 -39.31622628892461, 75.70927666947246 -38.822554561744134, 93.89587532803417 -40.05204046294093 C112.08247398659587 -41.281526364137726, 144.61041671559215 -39.86638831819097, 154.50481337830425 -40.05341587588191 M1.1190273357834668 -1.3714743962790816 C8.76918071850203 -6.754203855187321, 29.291461505433546 -25.000004550705974, 44.63941721244715 -31.23173796354793 C59.98737291946075 -37.46347137638988, 74.78866620524786 -36.97027314701739, 93.20676157786511 -38.76187487333082 C111.62485695048235 -40.55347659964425, 144.81658699049615 -41.65104842731419, 155.1479894481506 -41.98134832142852" stroke="#087f5b" stroke-width="2" fill="none"></path></g><g transform="translate(25.845939593024752 352.5) rotate(0 77.21929507329594 -21.097516931514264)"><path d="M126.97454230586861 -30.105543594273925 C133.41775914522233 -32.935692176535994, 140.05268418724106 -34.516480313809005, 157.14229632168076 -42.794256147583944 M128.00849607500112 -30.12315379961133 C135.39582442010183 -33.25590973200018, 143.40673971190904 -37.71250666437031, 154.51676111481152 -42.00422693288885" stroke="#087f5b" stroke-width="2" fill="none"></path></g><g transform="translate(25.845939593024752 352.5) rotate(0 77.21929507329594 -21.097516931514264)"><path d="M126.26162775485491 -50.614364994559025 C132.95400710834073 -48.70151213885321, 139.7536588350309 -45.54351334719633, 157.14229632168076 -42.794256147583944 M127.29558152398741 -50.63197519989643 C135.08268587773887 -47.47741748636663, 143.31197843331557 -45.651830538266005, 154.51676111481152 -42.00422693288885" stroke="#087f5b" stroke-width="2" fill="none"></path></g></g><g transform="translate(77.59593959302475 19.25) rotate(0 5.625 6.875)"><path d="M7.028426081769226 -0.15033471021102507 C8.357655663831409 0.008545815607432644, 9.381247349753492 1.6469860394566487, 10.228468925237689 2.7447578912530393 C11.075690500721885 3.84252974304943, 12.12802693490673 5.084443670414785, 12.111755534674407 6.436296400567318 C12.095484134442083 7.788149130719852, 11.190006754100558 9.517492782281181, 10.130840523843748 10.855874272168236 C9.071674293586938 12.194255762055292, 6.9424552241281425 14.038596704825071, 5.756758153133548 14.466585339889651 C4.571061082138954 14.89457397495423, 3.878804221698596 14.11951502237141, 3.0166580978761823 13.423806082555714 C2.1545119740537686 12.728097142740019, 1.1269066080611654 11.850958814788966, 0.5838814101990666 10.292331700995474 C0.04085621233696779 8.733704587201983, -0.5987875791699566 5.519460316423348, -0.24149308929641045 4.072043399794769 C0.11580140057713567 2.62462648316619, 1.361411737470098 2.1359860528076022, 2.727648349440343 1.6078302012240036 C4.0938849614105886 1.0796743496404049, 7.022124329941434 1.1772467209682012, 7.955926582525062 0.9031082902931757 C8.88972883510869 0.6289698596181503, 8.387299977178584 -0.10663389557007008, 8.330461864942109 -0.03700038282614937 M4.624003764804611 1.9554765102310858 C5.899235941006517 1.31076050223523, 7.184138951308736 1.23669253546923, 8.109516945783575 1.4225745892801749 C9.034894940258415 1.6084566430911198, 9.502755025071853 2.113130331013721, 10.17627173165365 3.0707688330967553 C10.849788438235446 4.028407335179789, 12.36695421363247 5.947137772712596, 12.15061718527436 7.168405601778381 C11.93428015691625 8.389673430844166, 9.703234206329267 9.24670023776246, 8.878249561504987 10.398375807491467 C8.053264916680707 11.550051377220475, 8.370510328156762 13.92806651513553, 7.20070931632868 14.078459020152426 C6.0309083045006 14.228851525169322, 3.2255744189881144 12.05393272349467, 1.8594434905365036 11.30073083759284 C0.4933125620848926 10.547528951691008, -0.7970985210043063 10.663592171819682, -0.996076254380986 9.559247704741445 C-1.1950539877576658 8.454903237663208, -0.26298277844832707 6.408970373005284, 0.6655770902764253 4.674664035123418 C1.5941369590011778 2.940357697241552, 4.062018503990482 -0.03228348396070979, 4.575282957967528 -0.8465903225497522 C5.088547411944574 -1.6608971611387946, 4.068271835643943 -0.7277084897721823, 3.7451638141387016 -0.21117699641083654" stroke="#087f5b" stroke-width="2" fill="none"></path></g><g transform="translate(105.09593959302475 10) rotate(0 40 17.5)"><text x="0" y="25" font-family="Virgil, Segoe UI Emoji" font-size="28px" fill="#000000" text-anchor="start" style="white-space: pre;" direction="ltr">SMTP</text></g><g transform="translate(75.09593959302475 60.5) rotate(0 6.875 6.875)"><path d="M7.298619208164042 0.8314111207483172 C8.677387548483889 0.8211985200132251, 10.706574193510063 0.1074636914825553, 11.82067843798215 1.1697008079070574 C12.934782682454236 2.2319379243315596, 14.01166983568075 5.533382806650505, 13.983244674996557 7.20483381929533 C13.954819514312364 8.876284831940156, 12.55833878360683 10.187205996055663, 11.650127473876985 11.19840688377601 C10.74191616414714 12.209607771496355, 9.684958195570765 13.040117458013698, 8.533976816617487 13.27203914561741 C7.382995437664211 13.50396083322112, 6.040337021393175 13.11217478601868, 4.744239200157324 12.58993700939827 C3.4481413789214725 12.067699232777858, 1.3475051269093758 11.432493738605253, 0.7573898892023792 10.138612485894942 C0.16727465149538245 8.844731233184632, 0.8381967734482827 6.3588232932164095, 1.2035477739153437 4.826649493136409 C1.5688987743824048 3.294475693056408, 1.636304897172422 1.8233246999898767, 2.949495892004745 0.9455696854149389 C4.262686886837068 0.06781467084000103, 7.8856978739199235 -0.5391524315979347, 9.082693742909282 -0.4398805943132187 C10.27968961189864 -0.34060875702850274, 10.204356782357534 1.4240279407576417, 10.131471105940891 1.5412007091232347 M3.544625374830722 1.093600779036752 C4.918570126615978 0.48424436205502064, 8.302348404201098 0.7014118926240954, 9.706584863512505 0.7794129025266887 C11.110821322823913 0.857413912429282, 11.471638854477176 0.41126250356857397, 11.970044130699165 1.5616068384523114 C12.468449406921154 2.7119511733360486, 12.50844993934318 5.764330174644389, 12.697016520844437 7.681478911829114 C12.885583102345695 9.598627649013839, 13.91279242616153 12.257332480668897, 13.101443619706714 13.064499261560659 C12.290094813251898 13.871666042452421, 9.540298443974207 12.547053602326894, 7.828923682115544 12.52447959717969 C6.1175489202568825 12.501905592032486, 4.181554106670266 13.702552672878438, 2.833195048554743 12.929055230677434 C1.4848359904392203 12.15555778847643, 0.024377608103265336 9.585798813840976, -0.26123066657759075 7.883494943973668 C-0.5468389412584469 6.181191074106359, 0.3822488453119829 4.051029495417347, 1.1195454004696064 2.715232011473584 C1.85684195562723 1.3794345275298214, 3.949365123435156 0.3579583744892183, 4.16254866436815 -0.13128995968890944 C4.375732205301144 -0.6205382938670372, 2.354518936592649 -0.663386518716153, 2.3986466460675695 -0.22025799359518228" stroke="#d9480f" stroke-width="2" fill="none"></path></g><g transform="translate(101.84593959302475 51.75) rotate(0 44 17.5)"><text x="0" y="25" font-family="Virgil, Segoe UI Emoji" font-size="28px" fill="#000000" text-anchor="start" style="white-space: pre;" direction="ltr">HTTP</text></g></svg>